<svg xmlns="http://www.w3.org/2000/svg" width="197.3311767578125" height="187.34365844726562" viewBox="-25.168025970458984 6.4921441078186035 197.3311767578125 187.34365844726562"><title>Neo4j Graph Visualization</title><desc>Created using Neo4j (http://www.neo4j.com/)</desc><g class="layer relationships"><g class="relationship" transform="translate(38.79431049584152 63.22537951690847) rotate(432.9325352845593)"><path class="outline" fill="#A5ABB6" stroke="none" d="M 5.987513214418485,-24.277555179777966 L 6.953439040707552,-24.018736134675446 A 45.87867582258195 45.87867582258195 0 0 1 14.039737689386229,-38.95578456488173 L 13.228269212216873,-39.54018075802509 A 46.87867582258195 46.87867582258195 0 0 0 5.987513214418485,-24.277555179777966 Z M 85.59927071221597,-44.06673480737126 L 84.86694555123105,-43.3857796997552 A 45.87867582258195 45.87867582258195 0 0 1 93.75925551285059,-29.448137578826866 L 90.98081316306596,-28.31665266557204 L 96.86246070207596,-23.15368624820521 L 97.46384531256342,-30.956784129833306 L 94.6854029627788,-29.82529921657848 A 46.87867582258195 46.87867582258195 0 0 0 85.59927071221597,-44.06673480737126"/><text text-anchor="middle" pointer-events="none" font-size="8px" fill="#000000" x="48.373669790477194" y="-55.432683959719505" font-family="sans-serif">CHEAPEST_FLIGHT</text></g><g class="relationship" transform="translate(143.16315106096744 43.0901725910567) rotate(529.0804493684816)"><path class="outline" fill="#A5ABB6" stroke="none" d="M 17.324116139070416,18.03122292025696 L 18.031222920256962,17.324116139070412 A 47.006455457136255 47.006455457136255 0 0 0 19.43815458219456,18.67386603955974 L 18.760978406246274,19.40968695984406 A 48.006455457136255 48.006455457136255 0 0 1 17.324116139070416,18.03122292025696 Z M 80.51289145836014,22.157329871975577 L 79.90374244191321,21.364274088463652 A 47.006455457136255 47.006455457136255 0 0 0 81.4249907879044,20.144813156308665 L 79.50045611530861,17.843473048029022 L 87.11554015265621,16.03778893829839 L 83.99103701803215,23.213266634014854 L 82.06650234543635,20.91192652573521 A 48.006455457136255 48.006455457136255 0 0 1 80.51289145836014,22.157329871975577"/><text text-anchor="middle" pointer-events="none" font-size="8px" fill="#000000" x="49.15810244019343" y="34.545031424862955" transform="rotate(180 49.15810244019343 31.545031424862955)" font-family="sans-serif">CHEAPEST_F…</text></g><g class="relationship" transform="translate(143.16315106096744 43.0901725910567) rotate(529.0804493684816)"><path class="outline" fill="#A5ABB6" stroke="none" d="M 24.018736134675446,6.953439040707552 L 24.277555179777966,5.987513214418485 A 104.29004999640401 104.29004999640401 0 0 0 26.500329822116807,6.556971290929297 L 26.262824168295772,7.528357447101513 A 105.29004999640401 105.29004999640401 0 0 1 24.018736134675446,6.953439040707552 Z M 72.98674906672454,8.277120436983964 L 72.78049080458177,7.298622849200612 A 104.29004999640401 104.29004999640401 0 0 0 75.02037082352841,6.800679968689739 L 74.33716381123511,3.8795109940576182 L 81.9502995997189,5.6933917691107485 L 75.93131350658612,10.6955719348659 L 75.24810649429283,7.774402960233779 A 105.29004999640401 105.29004999640401 0 0 1 72.98674906672454,8.277120436983964"/><text text-anchor="middle" pointer-events="none" font-size="8px" fill="#000000" x="49.59073424642273" y="13.027657575577521" transform="rotate(180 49.59073424642273 10.027657575577521)" font-family="sans-serif">CHEAPE…</text></g><g class="relationship" transform="translate(38.79431049584152 63.22537951690847) rotate(432.9325352845593)"><path class="outline" fill="#A5ABB6" stroke="none" d="M 12.698856172145504,-21.540405101092272 L 13.549972844582506,-21.015428520757713 A 44.31691361549829 44.31691361549829 0 0 1 14.734178541423873,-22.83409703512872 L 13.90978317244035,-23.400111412683327 A 45.31691361549829 45.31691361549829 0 0 0 12.698856172145504,-21.540405101092272 Z M 85.63798345640512,-27.286241285927144 L 84.87956581891254,-26.634472395030865 A 44.31691361549829 44.31691361549829 0 0 1 86.25332871695589,-24.954390909639294 L 83.88507996253193,-23.11281608434183 L 90.9450447683873,-19.735406286866308 L 89.4109937228545,-27.409824010035912 L 87.04274496843054,-25.56824918473845 A 45.31691361549829 45.31691361549829 0 0 0 85.63798345640512,-27.286241285927144"/><text text-anchor="middle" pointer-events="none" font-size="8px" fill="#000000" x="48.84427732208345" y="-39.501368941573986" font-family="sans-serif">CHEAPEST_FLIGHT</text></g><g class="relationship" transform="translate(38.79431049584152 63.22537951690847) rotate(349.0804493684816)"><path class="outline" fill="#A5ABB6" stroke="none" d="M 24.018736134675446,6.953439040707552 L 24.277555179777966,5.987513214418485 A 104.29004999640401 104.29004999640401 0 0 0 26.500329822116807,6.556971290929297 L 26.262824168295772,7.528357447101513 A 105.29004999640401 105.29004999640401 0 0 1 24.018736134675446,6.953439040707552 Z M 72.98674906672454,8.277120436983964 L 72.78049080458177,7.298622849200612 A 104.29004999640401 104.29004999640401 0 0 0 75.02037082352841,6.800679968689739 L 74.33716381123511,3.8795109940576182 L 81.9502995997189,5.6933917691107485 L 75.93131350658612,10.6955719348659 L 75.24810649429283,7.774402960233779 A 105.29004999640401 105.29004999640401 0 0 1 72.98674906672454,8.277120436983964"/><text text-anchor="middle" pointer-events="none" font-size="8px" fill="#000000" x="49.59073424642273" y="13.027657575577521" font-family="sans-serif">CHEAPE…</text></g><g class="relationship" transform="translate(38.79431049584152 63.22537951690847) rotate(432.9325352845593)"><path class="outline" fill="#A5ABB6" stroke="none" d="M 18.343228848217933,-16.993409175968942 L 19.008024713831873,-16.246384104727944 A 48.527395924850794 48.527395924850794 0 0 1 19.290388234797312,-16.495709232328295 L 18.631411010707076,-17.247872125676757 A 49.527395924850794 49.527395924850794 0 0 0 18.343228848217933,-16.993409175968942 Z M 80.68922142876096,-19.83744060713869 L 80.09519898954937,-19.03299213662418 A 48.527395924850794 48.527395924850794 0 0 1 80.3973525582233,-18.80805792810414 L 78.59660588043032,-16.408618117978133 L 86.29616989481615,-15.006222314941514 L 82.79834812861394,-22.00731100827215 L 80.99760145082095,-19.607871198146142 A 49.527395924850794 49.527395924850794 0 0 0 80.68922142876096,-19.83744060713869"/><text text-anchor="middle" pointer-events="none" font-size="8px" fill="#000000" x="49.224784615161425" y="-25.97996974163766" font-family="sans-serif">CHEAPEST_F…</text></g><g class="relationship" transform="translate(38.79431049584152 63.22537951690847) rotate(432.9325352845593)"><path class="outline" fill="#A5ABB6" stroke="none" d="M 22.446385545045896,-11.018610437035811 L 22.869003806786598,-10.112302649999162 A 67.19973001148176 67.19973001148176 0 0 1 24.356830697846288,-10.784208193785545 L 23.956352806175612,-11.70051461539515 A 68.19973001148176 68.19973001148176 0 0 0 22.446385545045896,-11.018610437035811 Z M 75.26328401739839,-13.048069446319388 L 74.91145788671318,-12.112004077999913 A 67.19973001148176 67.19973001148176 0 0 1 76.43250380249502,-11.519125304881285 L 75.30912130209603,-8.737397108633973 L 83.11043334380524,-9.361520836658208 L 77.93034713636033,-15.228096233211035 L 76.80696463596134,-12.446368036963722 A 68.19973001148176 68.19973001148176 0 0 0 75.26328401739839,-13.048069446319388"/><text text-anchor="middle" pointer-events="none" font-size="8px" fill="#000000" x="49.49134511715517" y="-13.88505555494563" font-family="sans-serif">CHEAPES…</text></g><g class="relationship" transform="translate(38.79431049584152 63.22537951690847) rotate(432.9325352845593)"><path class="outline" fill="#A5ABB6" stroke="none" d="M 24.663575034869986,-4.118017301971641 L 24.808506894177235,-3.1285756633906963 A 182.5708310511066 182.5708310511066 0 0 1 26.325973299985122,-3.3443492680656846 L 26.18935309921101,-4.334972769069196 A 183.5708310511066 183.5708310511066 0 0 0 24.663575034869986,-4.118017301971641 Z M 73.08551065895861,-4.755201020324989 L 72.96666457845467,-3.7622883307349753 A 182.5708310511066 182.5708310511066 0 0 1 74.48775401815686,-3.573742692608748 L 74.10622126742999,-0.5981028017411076 L 81.4945025553025,-3.1794395893906424 L 74.99646435245936,-7.541262547098935 L 74.61493160173248,-4.5656226562312945 A 183.5708310511066 183.5708310511066 0 0 0 73.08551065895861,-4.755201020324989"/><text text-anchor="middle" pointer-events="none" font-size="8px" fill="#000000" x="49.628437110084676" y="-2.5488749622137163" font-family="sans-serif">CHEAPE…</text></g><g class="relationship" transform="translate(38.79431049584152 63.22537951690847) rotate(432.9325352845593)"><path class="outline" fill="#A5ABB6" stroke="none" d="M 24.663575034869986,4.118017301971641 L 24.808506894177235,3.1285756633906963 A 182.5708310511066 182.5708310511066 0 0 0 26.32597329998511,3.3443492680656846 L 26.189353099211,4.334972769069196 A 183.5708310511066 183.5708310511066 0 0 1 24.663575034869986,4.118017301971641 Z M 73.08551065895864,4.755201020324989 L 72.9666645784547,3.7622883307349753 A 182.5708310511066 182.5708310511066 0 0 0 74.48775401815686,3.573742692608748 L 74.10622126742999,0.5981028017411076 L 81.4945025553025,3.1794395893906424 L 74.99646435245936,7.541262547098935 L 74.61493160173248,4.5656226562312945 A 183.5708310511066 183.5708310511066 0 0 1 73.08551065895864,4.755201020324989"/><text text-anchor="middle" pointer-events="none" font-size="8px" fill="#000000" x="49.62843711008468" y="8.548874962213716" font-family="sans-serif">CHEAPE…</text></g><g class="relationship" transform="translate(38.79431049584152 63.22537951690847) rotate(432.9325352845593)"><path class="outline" fill="#A5ABB6" stroke="none" d="M 22.446385545045896,11.018610437035811 L 22.869003806786598,10.112302649999162 A 67.19973001148176 67.19973001148176 0 0 0 24.356830697846306,10.784208193785553 L 23.956352806175627,11.700514615395164 A 68.19973001148176 68.19973001148176 0 0 1 22.446385545045896,11.018610437035811 Z M 75.26328401739839,13.048069446319388 L 74.91145788671318,12.112004077999913 A 67.19973001148176 67.19973001148176 0 0 0 76.43250380249502,11.519125304881285 L 75.30912130209603,8.737397108633973 L 83.11043334380524,9.361520836658208 L 77.93034713636033,15.228096233211035 L 76.80696463596134,12.446368036963722 A 68.19973001148176 68.19973001148176 0 0 1 75.26328401739839,13.048069446319388"/><text text-anchor="middle" pointer-events="none" font-size="8px" fill="#000000" x="49.491345117155184" y="19.88505555494563" font-family="sans-serif">CHEAPES…</text></g><g class="relationship" transform="translate(38.79431049584152 63.22537951690847) rotate(349.0804493684816)"><path class="outline" fill="#A5ABB6" stroke="none" d="M 17.324116139070416,18.03122292025696 L 18.031222920256962,17.324116139070412 A 47.006455457136255 47.006455457136255 0 0 0 19.43815458219456,18.67386603955974 L 18.760978406246274,19.40968695984406 A 48.006455457136255 48.006455457136255 0 0 1 17.324116139070416,18.03122292025696 Z M 80.51289145836014,22.157329871975577 L 79.90374244191321,21.364274088463652 A 47.006455457136255 47.006455457136255 0 0 0 81.4249907879044,20.144813156308665 L 79.50045611530861,17.843473048029022 L 87.11554015265621,16.03778893829839 L 83.99103701803215,23.213266634014854 L 82.06650234543635,20.91192652573521 A 48.006455457136255 48.006455457136255 0 0 1 80.51289145836014,22.157329871975577"/><text text-anchor="middle" pointer-events="none" font-size="8px" fill="#000000" x="49.15810244019343" y="34.545031424862955" font-family="sans-serif">CHEAPEST_F…</text></g><g class="relationship" transform="translate(38.79431049584152 63.22537951690847) rotate(432.9325352845593)"><path class="outline" fill="#A5ABB6" stroke="none" d="M 18.343228848217933,16.993409175968942 L 19.008024713831873,16.246384104727944 A 48.527395924850794 48.527395924850794 0 0 0 19.29038823479733,16.495709232328302 L 18.63141101070709,17.247872125676757 A 49.527395924850794 49.527395924850794 0 0 1 18.343228848217933,16.993409175968942 Z M 80.68922142876094,19.837440607138696 L 80.09519898954937,19.032992136624188 A 48.527395924850794 48.527395924850794 0 0 0 80.3973525582233,18.80805792810414 L 78.59660588043032,16.408618117978133 L 86.29616989481615,15.006222314941514 L 82.79834812861394,22.00731100827215 L 80.99760145082095,19.607871198146142 A 49.527395924850794 49.527395924850794 0 0 1 80.68922142876094,19.837440607138696"/><text text-anchor="middle" pointer-events="none" font-size="8px" fill="#000000" x="49.22478461516143" y="31.97996974163766" font-family="sans-serif">CHEAPEST_F…</text></g><g class="relationship" transform="translate(38.79431049584152 63.22537951690847) rotate(432.9325352845593)"><path class="outline" fill="#A5ABB6" stroke="none" d="M 12.698856172145504,21.540405101092272 L 13.549972844582506,21.015428520757713 A 44.31691361549829 44.31691361549829 0 0 0 14.73417854142388,22.834097035128732 L 13.909783172440356,23.400111412683337 A 45.31691361549829 45.31691361549829 0 0 1 12.698856172145504,21.540405101092272 Z M 85.63798345640512,27.286241285927144 L 84.87956581891254,26.634472395030865 A 44.31691361549829 44.31691361549829 0 0 0 86.25332871695589,24.954390909639294 L 83.88507996253193,23.11281608434183 L 90.9450447683873,19.735406286866308 L 89.4109937228545,27.409824010035912 L 87.04274496843054,25.56824918473845 A 45.31691361549829 45.31691361549829 0 0 1 85.63798345640512,27.286241285927144"/><text text-anchor="middle" pointer-events="none" font-size="8px" fill="#000000" x="48.84427732208346" y="45.501368941573986" font-family="sans-serif">CHEAPEST_FLIGHT</text></g><g class="relationship" transform="translate(38.79431049584152 63.22537951690847) rotate(432.9325352845593)"><path class="outline" fill="#A5ABB6" stroke="none" d="M 5.987513214418485,24.277555179777966 L 6.953439040707552,24.018736134675446 A 45.87867582258195 45.87867582258195 0 0 0 14.039737689386222,38.955784564881725 L 13.228269212216865,39.54018075802507 A 46.87867582258195 46.87867582258195 0 0 1 5.987513214418485,24.277555179777966 Z M 85.59927071221598,44.06673480737125 L 84.86694555123105,43.38577969975519 A 45.87867582258195 45.87867582258195 0 0 0 93.75925551285059,29.448137578826866 L 90.98081316306596,28.31665266557204 L 96.86246070207596,23.15368624820521 L 97.46384531256342,30.956784129833306 L 94.6854029627788,29.82529921657848 A 46.87867582258195 46.87867582258195 0 0 1 85.59927071221598,44.06673480737125"/><text text-anchor="middle" pointer-events="none" font-size="8px" fill="#000000" x="48.373669790477194" y="61.432683959719505" font-family="sans-serif">CHEAPEST_FLIGHT</text></g></g><g class="layer nodes"><g class="node" transform="translate(69.99060399257063,164.83578545153267)"><circle class="outline" cx="0" cy="0" r="25" fill="#ECB5C9" stroke="#da7298" stroke-width="2px"/><text text-anchor="middle" pointer-events="none" font-family="sans-serif" dy="1.5625" font-size="25" fill="#2A2C34"/><text text-anchor="middle" pointer-events="none" x="0" y="5" font-size="10px" fill="#2A2C34" font-family="sans-serif"> GRR</text></g><g class="node" transform="translate(143.16315106096744,43.0901725910567)"><circle class="outline" cx="0" cy="0" r="25" fill="#ECB5C9" stroke="#da7298" stroke-width="2px"/><text text-anchor="middle" pointer-events="none" font-family="sans-serif" dy="1.5625" font-size="25" fill="#2A2C34"/><text text-anchor="middle" pointer-events="none" x="0" y="5" font-size="10px" fill="#2A2C34" font-family="sans-serif"> MSN</text></g><g class="node" transform="translate(38.79431049584152,63.22537951690847)"><circle class="outline" cx="0" cy="0" r="25" fill="#ECB5C9" stroke="#da7298" stroke-width="2px"/><text text-anchor="middle" pointer-events="none" font-family="sans-serif" dy="1.5625" font-size="25" fill="#2A2C34"/><text text-anchor="middle" pointer-events="none" x="0" y="5" font-size="10px" fill="#2A2C34" font-family="sans-serif"> ORD</text></g></g></svg>