<svg xmlns="http://www.w3.org/2000/svg" width="484.2459716796875" height="343.897216796875" viewBox="-132.3507843017578 -118.06192016601562 484.2459716796875 343.897216796875"><title>Neo4j Graph Visualization</title><desc>Created using Neo4j (http://www.neo4j.com/)</desc><g class="layer relationships"><g class="relationship" transform="translate(70.21829086221182 100.75664017809795) rotate(276.891260337496)"><path class="outline" fill="#A5ABB6" stroke="none" d="M 25 0.5 L 36.585329982659296 0.5 L 36.585329982659296 -0.5 L 25 -0.5 Z M 82.14782998265929 0.5 L 93.73315996531859 0.5 L 93.73315996531859 3.5 L 100.73315996531859 0 L 93.73315996531859 -3.5 L 93.73315996531859 -0.5 L 82.14782998265929 -0.5 Z"/><text text-anchor="middle" pointer-events="none" font-size="8px" fill="#000000" x="59.366579982659296" y="3" font-family="sans-serif">ACTED_IN</text></g><g class="relationship" transform="translate(223.35290248984572 -30.326614366550203) rotate(397.5819034578851)"><path class="outline" fill="#A5ABB6" stroke="none" d="M 25 0.5 L 36.52284995143007 0.5 L 36.52284995143007 -0.5 L 25 -0.5 Z M 82.08534995143006 0.5 L 93.60819990286014 0.5 L 93.60819990286014 3.5 L 100.60819990286014 0 L 93.60819990286014 -3.5 L 93.60819990286014 -0.5 L 82.08534995143006 -0.5 Z"/><text text-anchor="middle" pointer-events="none" font-size="8px" fill="#000000" x="59.30409995143007" y="3" font-family="sans-serif">ACTED_IN</text></g><g class="relationship" transform="translate(223.35290248984572 -30.326614366550203) rotate(329.05964178968094)"><path class="outline" fill="#A5ABB6" stroke="none" d="M 25 0.5 L 30.838086265540355 0.5 L 30.838086265540355 -0.5 L 25 -0.5 Z M 76.40058626554035 0.5 L 82.23867253108071 0.5 L 82.23867253108071 3.5 L 89.23867253108071 0 L 82.23867253108071 -3.5 L 82.23867253108071 -0.5 L 76.40058626554035 -0.5 Z"/><text text-anchor="middle" pointer-events="none" font-size="8px" fill="#000000" x="53.619336265540355" y="3" font-family="sans-serif">ACTED_IN</text></g><g class="relationship" transform="translate(223.35290248984572 -30.326614366550203) rotate(512.7056357410519)"><path class="outline" fill="#A5ABB6" stroke="none" d="M 25 0.5 L 28.843867494300532 0.5 L 28.843867494300532 -0.5 L 25 -0.5 Z M 74.40636749430053 0.5 L 78.25023498860106 0.5 L 78.25023498860106 3.5 L 85.25023498860106 0 L 78.25023498860106 -3.5 L 78.25023498860106 -0.5 L 74.40636749430053 -0.5 Z"/><text text-anchor="middle" pointer-events="none" font-size="8px" fill="#000000" x="51.62511749430053" y="3" transform="rotate(180 51.62511749430053 0)" font-family="sans-serif">ACTED_IN</text></g><g class="relationship" transform="translate(223.35290248984572 -30.326614366550203) rotate(479.94998058632723)"><path class="outline" fill="#A5ABB6" stroke="none" d="M 25 0.5 L 27.55304542209597 0.5 L 27.55304542209597 -0.5 L 25 -0.5 Z M 62.88898292209597 0.5 L 65.44202834419194 0.5 L 65.44202834419194 3.5 L 72.44202834419194 0 L 65.44202834419194 -3.5 L 65.44202834419194 -0.5 L 62.88898292209597 -0.5 Z"/><text text-anchor="middle" pointer-events="none" font-size="8px" fill="#000000" x="45.22101417209597" y="3" transform="rotate(180 45.22101417209597 0)" font-family="sans-serif">ACTE…</text></g><g class="relationship" transform="translate(223.35290248984572 -30.326614366550203) rotate(537.4042702760487)"><path class="outline" fill="#A5ABB6" stroke="none" d="M 25 0.5 L 42.81387887039334 0.5 L 42.81387887039334 -0.5 L 25 -0.5 Z M 88.37637887039334 0.5 L 106.19025774078668 0.5 L 106.19025774078668 3.5 L 113.19025774078668 0 L 106.19025774078668 -3.5 L 106.19025774078668 -0.5 L 88.37637887039334 -0.5 Z"/><text text-anchor="middle" pointer-events="none" font-size="8px" fill="#000000" x="65.59512887039334" y="3" transform="rotate(180 65.59512887039334 0)" font-family="sans-serif">ACTED_IN</text></g><g class="relationship" transform="translate(141.44201644231111 127.98061688394816) rotate(261.52033599628083)"><path class="outline" fill="#A5ABB6" stroke="none" d="M 25 0.5 L 28.1895337327864 0.5 L 28.1895337327864 -0.5 L 25 -0.5 Z M 73.7520337327864 0.5 L 76.9415674655728 0.5 L 76.9415674655728 3.5 L 83.9415674655728 0 L 76.9415674655728 -3.5 L 76.9415674655728 -0.5 L 73.7520337327864 -0.5 Z"/><text text-anchor="middle" pointer-events="none" font-size="8px" fill="#000000" x="50.9707837327864" y="3" transform="rotate(180 50.9707837327864 0)" font-family="sans-serif">ACTED_IN</text></g><g class="relationship" transform="translate(141.44201644231111 127.98061688394816) rotate(294.2398078083376)"><path class="outline" fill="#A5ABB6" stroke="none" d="M 25 0.5 L 27.342348631245216 0.5 L 27.342348631245216 -0.5 L 25 -0.5 Z M 46.678286131245216 0.5 L 49.02063476249043 0.5 L 49.02063476249043 3.5 L 56.02063476249043 0 L 49.02063476249043 -3.5 L 49.02063476249043 -0.5 L 46.678286131245216 -0.5 Z"/><text text-anchor="middle" pointer-events="none" font-size="8px" fill="#000000" x="37.010317381245216" y="3" font-family="sans-serif">A…</text></g><g class="relationship" transform="translate(141.44201644231111 127.98061688394816) rotate(249.73546749882252)"><path class="outline" fill="#A5ABB6" stroke="none" d="M 25 0.5 L 54.759271820195934 0.5 L 54.759271820195934 -0.5 L 25 -0.5 Z M 100.32177182019593 0.5 L 130.08104364039187 0.5 L 130.08104364039187 3.5 L 137.08104364039187 0 L 130.08104364039187 -3.5 L 130.08104364039187 -0.5 L 100.32177182019593 -0.5 Z"/><text text-anchor="middle" pointer-events="none" font-size="8px" fill="#000000" x="77.54052182019593" y="3" transform="rotate(180 77.54052182019593 0)" font-family="sans-serif">ACTED_IN</text></g><g class="relationship" transform="translate(160.86819199838467 -82.12306153937634) rotate(469.12379267770314)"><path class="outline" fill="#A5ABB6" stroke="none" d="M 25 0.5 L 27.88451451133639 0.5 L 27.88451451133639 -0.5 L 25 -0.5 Z M 73.44701451133639 0.5 L 76.33152902267278 0.5 L 76.33152902267278 3.5 L 83.33152902267278 0 L 76.33152902267278 -3.5 L 76.33152902267278 -0.5 L 73.44701451133639 -0.5 Z"/><text text-anchor="middle" pointer-events="none" font-size="8px" fill="#000000" x="50.66576451133639" y="3" transform="rotate(180 50.66576451133639 0)" font-family="sans-serif">ACTED_IN</text></g><g class="relationship" transform="translate(160.86819199838467 -82.12306153937634) rotate(444.199987353739)"><path class="outline" fill="#A5ABB6" stroke="none" d="M 25 0.5 L 42.18234689743336 0.5 L 42.18234689743336 -0.5 L 25 -0.5 Z M 87.74484689743336 0.5 L 104.92719379486672 0.5 L 104.92719379486672 3.5 L 111.92719379486672 0 L 104.92719379486672 -3.5 L 104.92719379486672 -0.5 L 87.74484689743336 -0.5 Z"/><text text-anchor="middle" pointer-events="none" font-size="8px" fill="#000000" x="64.96359689743336" y="3" font-family="sans-serif">ACTED_IN</text></g><g class="relationship" transform="translate(160.86819199838467 -82.12306153937634) rotate(502.4652862522855)"><path class="outline" fill="#A5ABB6" stroke="none" d="M 25 0.5 L 26.47720572902969 0.5 L 26.47720572902969 -0.5 L 25 -0.5 Z M 61.81314322902969 0.5 L 63.29034895805938 0.5 L 63.29034895805938 3.5 L 70.29034895805938 0 L 63.29034895805938 -3.5 L 63.29034895805938 -0.5 L 61.81314322902969 -0.5 Z"/><text text-anchor="middle" pointer-events="none" font-size="8px" fill="#000000" x="44.14517447902969" y="3" transform="rotate(180 44.14517447902969 0)" font-family="sans-serif">ACTE…</text></g><g class="relationship" transform="translate(19.351485922576973 59.883623952843124) rotate(528.8787292565315)"><path class="outline" fill="#A5ABB6" stroke="none" d="M 25 0.5 L 36.24403859850004 0.5 L 36.24403859850004 -0.5 L 25 -0.5 Z M 81.80653859850004 0.5 L 93.05057719700008 0.5 L 93.05057719700008 3.5 L 100.05057719700008 0 L 93.05057719700008 -3.5 L 93.05057719700008 -0.5 L 81.80653859850004 -0.5 Z"/><text text-anchor="middle" pointer-events="none" font-size="8px" fill="#000000" x="59.02528859850004" y="3" transform="rotate(180 59.02528859850004 0)" font-family="sans-serif">ACTED_IN</text></g><g class="relationship" transform="translate(19.351485922576973 59.883623952843124) rotate(487.60323180497653)"><path class="outline" fill="#A5ABB6" stroke="none" d="M 25 0.5 L 39.494354875037246 0.5 L 39.494354875037246 -0.5 L 25 -0.5 Z M 85.05685487503725 0.5 L 99.55120975007449 0.5 L 99.55120975007449 3.5 L 106.55120975007449 0 L 99.55120975007449 -3.5 L 99.55120975007449 -0.5 L 85.05685487503725 -0.5 Z"/><text text-anchor="middle" pointer-events="none" font-size="8px" fill="#000000" x="62.275604875037246" y="3" transform="rotate(180 62.275604875037246 0)" font-family="sans-serif">ACTED_IN</text></g><g class="relationship" transform="translate(19.351485922576973 59.883623952843124) rotate(216.7929060146501)"><path class="outline" fill="#A5ABB6" stroke="none" d="M 25 0.5 L 34.55591162618335 0.5 L 34.55591162618335 -0.5 L 25 -0.5 Z M 80.11841162618336 0.5 L 89.6743232523667 0.5 L 89.6743232523667 3.5 L 96.6743232523667 0 L 89.6743232523667 -3.5 L 89.6743232523667 -0.5 L 80.11841162618336 -0.5 Z"/><text text-anchor="middle" pointer-events="none" font-size="8px" fill="#000000" x="57.33716162618335" y="3" transform="rotate(180 57.33716162618335 0)" font-family="sans-serif">ACTED_IN</text></g><g class="relationship" transform="translate(19.351485922576973 59.883623952843124) rotate(449.96008052573643)"><path class="outline" fill="#A5ABB6" stroke="none" d="M 25 0.5 L 42.19460989515876 0.5 L 42.19460989515876 -0.5 L 25 -0.5 Z M 87.75710989515876 0.5 L 104.95171979031753 0.5 L 104.95171979031753 3.5 L 111.95171979031753 0 L 104.95171979031753 -3.5 L 104.95171979031753 -0.5 L 87.75710989515876 -0.5 Z"/><text text-anchor="middle" pointer-events="none" font-size="8px" fill="#000000" x="64.97585989515876" y="3" font-family="sans-serif">ACTED_IN</text></g><g class="relationship" transform="translate(19.351485922576973 59.883623952843124) rotate(339.49426911610226)"><path class="outline" fill="#A5ABB6" stroke="none" d="M 25 0.5 L 30.318140627459513 0.5 L 30.318140627459513 -0.5 L 25 -0.5 Z M 75.88064062745951 0.5 L 81.19878125491903 0.5 L 81.19878125491903 3.5 L 88.19878125491903 0 L 81.19878125491903 -3.5 L 81.19878125491903 -0.5 L 75.88064062745951 -0.5 Z"/><text text-anchor="middle" pointer-events="none" font-size="8px" fill="#000000" x="53.09939062745951" y="3" font-family="sans-serif">ACTED_IN</text></g><g class="relationship" transform="translate(19.351485922576973 59.883623952843124) rotate(357.86910325107715)"><path class="outline" fill="#A5ABB6" stroke="none" d="M 25 0.5 L 51.44954741706556 0.5 L 51.44954741706556 -0.5 L 25 -0.5 Z M 97.01204741706556 0.5 L 123.46159483413112 0.5 L 123.46159483413112 3.5 L 130.46159483413112 0 L 123.46159483413112 -3.5 L 123.46159483413112 -0.5 L 97.01204741706556 -0.5 Z"/><text text-anchor="middle" pointer-events="none" font-size="8px" fill="#000000" x="74.23079741706556" y="3" font-family="sans-serif">ACTED_IN</text></g><g class="relationship" transform="translate(19.351485922576973 59.883623952843124) rotate(308.1533515486863)"><path class="outline" fill="#A5ABB6" stroke="none" d="M 25 0.5 L 27.09874840916214 0.5 L 27.09874840916214 -0.5 L 25 -0.5 Z M 72.66124840916214 0.5 L 74.75999681832428 0.5 L 74.75999681832428 3.5 L 81.75999681832428 0 L 74.75999681832428 -3.5 L 74.75999681832428 -0.5 L 72.66124840916214 -0.5 Z"/><text text-anchor="middle" pointer-events="none" font-size="8px" fill="#000000" x="49.87999840916214" y="3" font-family="sans-serif">ACTED_IN</text></g></g><g class="layer nodes"><g class="node" transform="translate(85.3044351481295,-24.068180132002496)"><circle class="outline" cx="0" cy="0" r="25" fill="#F79767" stroke="#f36924" stroke-width="2px"/><text text-anchor="middle" pointer-events="none" font-family="sans-serif" dy="1.5625" font-size="25" fill="#FFFFFF"/><text text-anchor="middle" pointer-events="none" font-family="sans-serif" dy="1.5625" font-size="25" fill="#FFFFFF"/><text text-anchor="middle" pointer-events="none" x="0" y="0" font-size="10px" fill="#FFFFFF" font-family="sans-serif"> The</text><text text-anchor="middle" pointer-events="none" x="0" y="10" font-size="10px" fill="#FFFFFF" font-family="sans-serif"> Matrix</text></g><g class="node" transform="translate(70.21829086221182,100.75664017809795)"><circle class="outline" cx="0" cy="0" r="25" fill="#57C7E3" stroke="#23b3d7" stroke-width="2px"/><text text-anchor="middle" pointer-events="none" font-family="sans-serif" dy="1.5625" font-size="25" fill="#2A2C34"/><text text-anchor="middle" pointer-events="none" font-family="sans-serif" dy="1.5625" font-size="25" fill="#2A2C34"/><text text-anchor="middle" pointer-events="none" x="0" y="0" font-size="10px" fill="#2A2C34" font-family="sans-serif"> Emil</text><text text-anchor="middle" pointer-events="none" x="0" y="10" font-size="10px" fill="#2A2C34" font-family="sans-serif"> Eifrem</text></g><g class="node" transform="translate(322.8951794905255,46.2811853170121)"><circle class="outline" cx="0" cy="0" r="25" fill="#F79767" stroke="#f36924" stroke-width="2px"/><text text-anchor="middle" pointer-events="none" font-family="sans-serif" dy="1.5625" font-size="25" fill="#FFFFFF"/><text text-anchor="middle" pointer-events="none" font-family="sans-serif" dy="1.5625" font-size="25" fill="#FFFFFF"/><text text-anchor="middle" pointer-events="none" x="0" y="0" font-size="10px" fill="#FFFFFF" font-family="sans-serif"> Cloud</text><text text-anchor="middle" pointer-events="none" x="0" y="10" font-size="10px" fill="#FFFFFF" font-family="sans-serif"> Atlas</text></g><g class="node" transform="translate(223.35290248984572,-30.326614366550203)"><circle class="outline" cx="0" cy="0" r="25" fill="#57C7E3" stroke="#23b3d7" stroke-width="2px"/><text text-anchor="middle" pointer-events="none" font-family="sans-serif" dy="1.5625" font-size="25" fill="#2A2C34"/><text text-anchor="middle" pointer-events="none" font-family="sans-serif" dy="1.5625" font-size="25" fill="#2A2C34"/><text text-anchor="middle" pointer-events="none" x="0" y="0" font-size="10px" fill="#2A2C34" font-family="sans-serif"> Hugo</text><text text-anchor="middle" pointer-events="none" x="0" y="10" font-size="10px" fill="#2A2C34" font-family="sans-serif"> Weaving</text></g><g class="node" transform="translate(321.33575038891496,-89.06191737293092)"><circle class="outline" cx="0" cy="0" r="25" fill="#F79767" stroke="#f36924" stroke-width="2px"/><text text-anchor="middle" pointer-events="none" font-family="sans-serif" dy="1.5625" font-size="25" fill="#FFFFFF"/><text text-anchor="middle" pointer-events="none" font-family="sans-serif" dy="1.5625" font-size="25" fill="#FFFFFF"/><text text-anchor="middle" pointer-events="none" x="0" y="0" font-size="10px" fill="#FFFFFF" font-family="sans-serif"> V for</text><text text-anchor="middle" pointer-events="none" x="0" y="10" font-size="10px" fill="#FFFFFF" font-family="sans-serif"> Vendetta</text></g><g class="node" transform="translate(125.3776704420255,20.229969974339955)"><circle class="outline" cx="0" cy="0" r="25" fill="#F79767" stroke="#f36924" stroke-width="2px"/><text text-anchor="middle" pointer-events="none" font-family="sans-serif" dy="1.5625" font-size="25" fill="#FFFFFF"/><text text-anchor="middle" pointer-events="none" font-family="sans-serif" dy="1.5625" font-size="25" fill="#FFFFFF"/><text text-anchor="middle" pointer-events="none" font-family="sans-serif" dy="1.5625" font-size="25" fill="#FFFFFF"/><text text-anchor="middle" pointer-events="none" x="0" y="-5" font-size="10px" fill="#FFFFFF" font-family="sans-serif"> The</text><text text-anchor="middle" pointer-events="none" x="0" y="5" font-size="10px" fill="#FFFFFF" font-family="sans-serif"> Matrix</text><text text-anchor="middle" pointer-events="none" x="0" y="15" font-size="10px" fill="#FFFFFF" font-family="sans-serif"> Revol…</text></g><g class="node" transform="translate(174.7055772546464,54.10315902702848)"><circle class="outline" cx="0" cy="0" r="25" fill="#F79767" stroke="#f36924" stroke-width="2px"/><text text-anchor="middle" pointer-events="none" font-family="sans-serif" dy="1.5625" font-size="25" fill="#FFFFFF"/><text text-anchor="middle" pointer-events="none" font-family="sans-serif" dy="1.5625" font-size="25" fill="#FFFFFF"/><text text-anchor="middle" pointer-events="none" font-family="sans-serif" dy="1.5625" font-size="25" fill="#FFFFFF"/><text text-anchor="middle" pointer-events="none" x="0" y="-5" font-size="10px" fill="#FFFFFF" font-family="sans-serif"> The</text><text text-anchor="middle" pointer-events="none" x="0" y="5" font-size="10px" fill="#FFFFFF" font-family="sans-serif"> Matrix</text><text text-anchor="middle" pointer-events="none" x="0" y="15" font-size="10px" fill="#FFFFFF" font-family="sans-serif"> Reloa…</text></g><g class="node" transform="translate(141.44201644231111,127.98061688394816)"><circle class="outline" cx="0" cy="0" r="25" fill="#57C7E3" stroke="#23b3d7" stroke-width="2px"/><text text-anchor="middle" pointer-events="none" font-family="sans-serif" dy="1.5625" font-size="25" fill="#2A2C34"/><text text-anchor="middle" pointer-events="none" font-family="sans-serif" dy="1.5625" font-size="25" fill="#2A2C34"/><text text-anchor="middle" pointer-events="none" x="0" y="0" font-size="10px" fill="#2A2C34" font-family="sans-serif"> Laurence</text><text text-anchor="middle" pointer-events="none" x="0" y="10" font-size="10px" fill="#2A2C34" font-family="sans-serif"> Fishbur…</text></g><g class="node" transform="translate(160.86819199838467,-82.12306153937634)"><circle class="outline" cx="0" cy="0" r="25" fill="#57C7E3" stroke="#23b3d7" stroke-width="2px"/><text text-anchor="middle" pointer-events="none" font-family="sans-serif" dy="1.5625" font-size="25" fill="#2A2C34"/><text text-anchor="middle" pointer-events="none" x="0" y="5" font-size="10px" fill="#2A2C34" font-family="sans-serif"> Carrie-A…</text></g><g class="node" transform="translate(-103.35078194762868,84.00416119418948)"><circle class="outline" cx="0" cy="0" r="25" fill="#F79767" stroke="#f36924" stroke-width="2px"/><text text-anchor="middle" pointer-events="none" font-family="sans-serif" dy="1.5625" font-size="25" fill="#FFFFFF"/><text text-anchor="middle" pointer-events="none" font-family="sans-serif" dy="1.5625" font-size="25" fill="#FFFFFF"/><text text-anchor="middle" pointer-events="none" x="0" y="0" font-size="10px" fill="#FFFFFF" font-family="sans-serif"> The</text><text text-anchor="middle" pointer-events="none" x="0" y="10" font-size="10px" fill="#FFFFFF" font-family="sans-serif"> Replac…</text></g><g class="node" transform="translate(19.351485922576973,59.883623952843124)"><circle class="outline" cx="0" cy="0" r="25" fill="#57C7E3" stroke="#23b3d7" stroke-width="2px"/><text text-anchor="middle" pointer-events="none" font-family="sans-serif" dy="1.5625" font-size="25" fill="#2A2C34"/><text text-anchor="middle" pointer-events="none" font-family="sans-serif" dy="1.5625" font-size="25" fill="#2A2C34"/><text text-anchor="middle" pointer-events="none" x="0" y="0" font-size="10px" fill="#2A2C34" font-family="sans-serif"> Keanu</text><text text-anchor="middle" pointer-events="none" x="0" y="10" font-size="10px" fill="#2A2C34" font-family="sans-serif"> Reeves</text></g><g class="node" transform="translate(-60.91972735537739,164.10575742550458)"><circle class="outline" cx="0" cy="0" r="25" fill="#F79767" stroke="#f36924" stroke-width="2px"/><text text-anchor="middle" pointer-events="none" font-family="sans-serif" dy="1.5625" font-size="25" fill="#FFFFFF"/><text text-anchor="middle" pointer-events="none" font-family="sans-serif" dy="1.5625" font-size="25" fill="#FFFFFF"/><text text-anchor="middle" pointer-events="none" x="0" y="0" font-size="10px" fill="#FFFFFF" font-family="sans-serif"> Johnny</text><text text-anchor="middle" pointer-events="none" x="0" y="10" font-size="10px" fill="#FFFFFF" font-family="sans-serif"> Mnemo…</text></g><g class="node" transform="translate(-78.08598523544555,-12.990103502605157)"><circle class="outline" cx="0" cy="0" r="25" fill="#F79767" stroke="#f36924" stroke-width="2px"/><text text-anchor="middle" pointer-events="none" font-family="sans-serif" dy="1.5625" font-size="25" fill="#FFFFFF"/><text text-anchor="middle" pointer-events="none" x="0" y="5" font-size="10px" fill="#FFFFFF" font-family="sans-serif"> Somethi…</text></g><g class="node" transform="translate(19.446903774601488,196.83531050309765)"><circle class="outline" cx="0" cy="0" r="25" fill="#F79767" stroke="#f36924" stroke-width="2px"/><text text-anchor="middle" pointer-events="none" font-family="sans-serif" dy="1.5625" font-size="25" fill="#FFFFFF"/><text text-anchor="middle" pointer-events="none" font-family="sans-serif" dy="1.5625" font-size="25" fill="#FFFFFF"/><text text-anchor="middle" pointer-events="none" font-family="sans-serif" dy="1.5625" font-size="25" fill="#FFFFFF"/><text text-anchor="middle" pointer-events="none" x="0" y="-5" font-size="10px" fill="#FFFFFF" font-family="sans-serif"> The</text><text text-anchor="middle" pointer-events="none" x="0" y="5" font-size="10px" fill="#FFFFFF" font-family="sans-serif"> Devil's</text><text text-anchor="middle" pointer-events="none" x="0" y="15" font-size="10px" fill="#FFFFFF" font-family="sans-serif"> Advoc…</text></g></g></svg>